# xmcd CD database file
#
# Track frame offsets:
#	150
#	14076
#	27240
#	40756
#	57179
#	71450
#	83901
#	99716
#	110934
#	125037
#	141819
#
# Disc length: 2094 seconds
#
# Revision: 0
# Processed by: cddbd v1.5.2PL0 Copyright (c) Steve Scherf et al.
# Submitted via: CDex 2.09
#
DISCID=9e082c0b
DTITLE=Andy Martin - Country Jukebox VOL 1
DYEAR=2002
DGENRE=Country
TTITLE0=Guitars Cadillacs
TTITLE1=Burn me down
TTITLE2=Easy come, easy go
TTITLE3=On second thought
TTITLE4=He drinks Tequilla
TTITLE5=Gonna get a life
TTITLE6=Modern Day romance
TTITLE7=Every second
TTITLE8=Kindly keep it Country
TTITLE9=Even Cowgirls get the Blues
TTITLE10=Who say`s you can`t have it all
EXTD=YEAR: 2002
EXTT0=
EXTT1=
EXTT2=
EXTT3=
EXTT4=
EXTT5=
EXTT6=
EXTT7=
EXTT8=
EXTT9=
EXTT10=
PLAYORDER=
